<svg data-v-fde0c5aa="" xmlns="http://www.w3.org/2000/svg" viewBox="0 0 300 300" class="iconAbove"><!----><defs data-v-fde0c5aa=""><!----></defs><rect data-v-fde0c5aa="" fill="#39DAA2" x="0" y="0" width="300px" height="300px" class="logo-background-square"></rect><defs data-v-fde0c5aa=""><!----></defs><g data-v-fde0c5aa="" id="81e6e041-51da-4efc-b5ba-421136145f29" fill="#FFFFFF" transform="matrix(4.03977622023487,0,0,4.03977622023487,15.677439232454022,164.43349720547943)"><path d="M2.80 3.68L1.07 3.68L1.07 13.52L2.80 13.52L2.80 12.74C3.32 13.32 4.14 13.73 4.89 13.73C6.67 13.73 8.11 12.32 8.11 10.02C8.11 7.71 6.67 6.44 5.02 6.44C3.99 6.44 3.21 7.03 2.80 7.78ZM4.58 8.18C5.62 8.18 6.30 8.98 6.30 10.02C6.30 11.05 5.62 12.03 4.54 12.03C3.87 12.03 3.29 11.66 2.80 11.14L2.80 10.14C2.79 8.91 3.66 8.18 4.58 8.18ZM12.97 6.44C10.96 6.44 9.28 8.04 9.28 10.09C9.28 12.13 10.96 13.73 12.97 13.73C14.98 13.73 16.68 12.13 16.68 10.09C16.68 8.04 14.98 6.44 12.97 6.44ZM12.97 8.12C13.96 8.12 14.83 8.83 14.83 10.09C14.83 11.35 13.96 12.04 12.97 12.04C11.99 12.04 11.13 11.35 11.13 10.09C11.13 8.83 11.99 8.12 12.97 8.12ZM22.15 6.44C21.22 6.44 20.48 7.04 20.06 7.60L20.06 6.62L18.32 6.62L18.32 13.52L20.06 13.52L20.06 9.15C20.45 8.60 21 8.13 21.62 8.13C22.39 8.13 22.87 8.59 22.87 9.52L22.89 13.52L24.62 13.52L24.62 9.28C24.62 7.40 23.56 6.44 22.15 6.44ZM29.83 6.44C27.82 6.44 26.14 8.04 26.14 10.09C26.14 12.13 27.82 13.73 29.83 13.73C31.84 13.73 33.54 12.13 33.54 10.09C33.54 8.04 31.84 6.44 29.83 6.44ZM29.83 8.12C30.82 8.12 31.69 8.83 31.69 10.09C31.69 11.35 30.82 12.04 29.83 12.04C28.85 12.04 27.99 11.35 27.99 10.09C27.99 8.83 28.85 8.12 29.83 8.12ZM38.32 6.44C36.24 6.44 34.70 8.16 34.70 10.10C34.70 12.04 36.24 13.73 38.32 13.73C39.35 13.73 39.98 13.36 40.36 13.03L40.36 11.44C39.88 11.79 39.32 12.04 38.47 12.04C37.35 12.04 36.54 11.22 36.54 10.10C36.54 8.98 37.42 8.15 38.47 8.15C39.32 8.15 39.88 8.42 40.36 8.76L40.36 7.16C39.98 6.85 39.35 6.44 38.32 6.44ZM45.12 6.44C43.11 6.44 41.43 8.04 41.43 10.09C41.43 12.13 43.11 13.73 45.12 13.73C47.13 13.73 48.82 12.13 48.82 10.09C48.82 8.04 47.13 6.44 45.12 6.44ZM45.12 8.12C46.10 8.12 46.98 8.83 46.98 10.09C46.98 11.35 46.10 12.04 45.12 12.04C44.13 12.04 43.27 11.35 43.27 10.09C43.27 8.83 44.13 8.12 45.12 8.12ZM57.03 13.52L57.03 3.68L55.29 3.68L55.29 7.40C54.77 6.82 53.95 6.44 53.20 6.44C51.42 6.44 49.98 7.81 49.98 10.12C49.98 12.41 51.42 13.73 53.07 13.73C54.10 13.73 54.88 13.10 55.29 12.36L55.29 13.52ZM53.55 8.15C54.22 8.15 54.80 8.48 55.29 9.00L55.29 9.98C55.30 11.22 54.43 11.99 53.51 11.99C52.47 11.99 51.79 11.16 51.79 10.12C51.79 9.08 52.47 8.15 53.55 8.15ZM65.43 9.87C65.43 7.86 64.22 6.44 62.18 6.44C60.16 6.44 58.68 8.13 58.68 10.14C58.68 12.22 60.35 13.73 62.38 13.73C63.44 13.73 64.18 13.38 64.56 13.10L64.56 11.53C64.13 11.80 63.46 12.15 62.45 12.15C61.40 12.15 60.62 11.54 60.43 10.60L65.43 10.60ZM60.46 9.46C60.66 8.54 61.26 7.96 62.14 7.96C62.93 7.96 63.70 8.46 63.77 9.46Z"></path></g><defs data-v-fde0c5aa=""><!----></defs><g data-v-fde0c5aa="" id="9381224c-90bb-45d2-a238-34208c4e5167" stroke="none" fill="#041814" transform="matrix(2.5374842457034865,0,0,2.5374842457034865,109.40025206874421,80.10037810311633)"><path d="M9.382 8.675h13.943v13.943L32 31.293V0H.707zM22.618 23.325H8.675V9.382L0 .707V32h31.293z"></path></g><!----></svg>